<svg width="134" height="46" viewBox="0 0 134 46" fill="none" xmlns="http://www.w3.org/2000/svg">
<path d="M0 1.7527C3.50346 1.7527 4.98682 4.21764 6.56126 6.86311L19.4561 29.1822C20.0644 30.2948 20.6629 31.6405 20.6467 32.9009C20.5979 36.1831 16.3755 37.3844 13.8479 37.496C12.0135 37.5593 10.1901 37.1849 8.52606 36.403L7.49812 37.7454C8.09667 40.3187 10.4583 43.4467 13.7048 43.4204C19.3422 43.381 22.3024 38.1689 24.5665 33.9414L28.7629 26.0936L16.5902 5.01522C15.4647 3.13123 17.3124 1.75927 19.2772 1.73301L19.7131 0H0.448911L0 1.7527Z" fill="#F6F6F6"/>
<path d="M71.1006 10.2928H72.6652C73.4882 10.2928 73.8135 9.38361 73.8135 8.77641C73.8135 8.1692 73.4687 7.40445 72.6359 7.40445H71.0973V10.2928H71.1006ZM69.2399 11.8617V2.77655H71.1006V5.85525H72.4017C74.5845 5.85525 75.7425 7.20095 75.723 8.74687C75.7035 10.2928 74.6235 11.8617 72.4245 11.8617H69.2203H69.2399Z" fill="#F6F6F6"/>
<path d="M127.983 16.4468C128.663 16.9581 129.488 17.2342 130.336 17.2342C131.184 17.2342 132.01 16.9581 132.69 16.4468L131.941 15.3375C131.479 15.6902 130.916 15.8811 130.336 15.8811C129.757 15.8811 129.193 15.6902 128.731 15.3375L127.983 16.4468ZM134.001 27.1796V18.1339H132.176L128.493 24.288V18.1339H126.685V27.1796H128.493L132.169 21.0419V27.1796H133.994H134.001Z" fill="#F6F6F6"/>
<path d="M69.168 20.6972V21.823H66.39V20.8383C66.39 20.0309 67.0796 19.5714 67.8798 19.5714C68.371 19.5714 69.181 19.8996 69.181 20.7103L69.168 20.6972ZM71.2401 26.1259L70.4562 24.7047C69.7665 25.3189 68.884 25.6677 67.9644 25.6894C67.0731 25.6894 66.3835 25.1938 66.3835 24.219V23.3722H71.0417V21.1665C71.0417 18.869 69.6006 17.9893 67.8733 17.9893C65.889 17.9893 64.5032 19.0167 64.5032 21.2715V24.2879C64.5032 26.3064 65.8044 27.3206 67.818 27.3206C69.2883 27.3239 70.1927 26.8414 71.2401 26.1259Z" fill="#F6F6F6"/>
<path d="M63.8688 40.9718H65.4334C66.2564 40.9718 66.5817 40.3153 66.5817 39.7016C66.5921 39.5449 66.5684 39.3878 66.5122 39.2414C66.456 39.0949 66.3688 38.9626 66.2566 38.8538C66.1444 38.7449 66.0099 38.6622 65.8627 38.6113C65.7154 38.5605 65.5589 38.5427 65.4042 38.5594H63.8655V40.9685L63.8688 40.9718ZM63.8688 35.0638V37.0167H65.209C65.3373 37.0298 65.467 37.0137 65.5883 36.9696C65.7097 36.9256 65.8198 36.8547 65.9106 36.7622C66.0013 36.6697 66.0704 36.5579 66.1128 36.435C66.1552 36.3121 66.1698 36.1811 66.1556 36.0518C66.1622 35.9257 66.1434 35.7995 66.1004 35.681C66.0574 35.5624 65.991 35.4538 65.9053 35.3618C65.8196 35.2698 65.7163 35.1963 65.6017 35.1456C65.487 35.095 65.3634 35.0683 65.2383 35.0671H63.8688V35.0638ZM62.0081 42.5374V33.4982H65.209C67.408 33.4982 68.0976 34.8505 68.0651 35.8844C68.0713 36.2597 67.9719 36.6292 67.7784 36.9498C67.585 37.2705 67.3054 37.5293 66.9721 37.6962C67.4193 37.8465 67.8075 38.1365 68.0806 38.5241C68.3536 38.9118 68.4975 39.377 68.4912 39.8526C68.4912 41.1654 67.5349 42.544 65.3326 42.544H62.0048L62.0081 42.5374Z" fill="#F6F6F6"/>
<path d="M117.679 33.4982V35.0474H119.947L119.943 42.5637H120.064H121.768H121.885V35.0474H124.15V33.4982H117.679Z" fill="#F6F6F6"/>
<path d="M103.552 1.10938C104.232 1.62059 105.058 1.89672 105.906 1.89672C106.754 1.89672 107.579 1.62059 108.259 1.10938L107.511 0C107.049 0.352757 106.485 0.54364 105.906 0.54364C105.326 0.54364 104.763 0.352757 104.301 0L103.552 1.10938ZM109.57 11.8421V2.79642H107.745L104.05 8.96363V2.79642H102.241V11.8421H104.066L107.742 5.70443V11.8421H109.567H109.57Z" fill="#F6F6F6"/>
<path d="M48.6679 9.0362C48.6679 9.82393 47.8872 10.3031 47.178 10.3031C46.6016 10.2885 46.0397 10.1172 45.5515 9.80752V4.92361C46.0434 4.51385 46.6575 4.28268 47.2951 4.26717C47.4716 4.26015 47.6477 4.28873 47.813 4.35124C47.9784 4.41374 48.1297 4.50892 48.2582 4.63119C48.3866 4.75345 48.4896 4.90036 48.5611 5.06329C48.6325 5.22622 48.6711 5.4019 48.6744 5.58005V9.0362H48.6679ZM50.5481 8.83927V5.7179C50.5481 3.74858 49.5072 2.63263 47.5781 2.63263C46.8495 2.63263 45.5971 2.92803 45.0864 3.34815C44.9484 3.02716 44.6967 2.76967 44.3805 2.62607L43.2322 3.69607C43.6681 3.99146 43.6811 4.56913 43.6811 4.82514V14.7702H45.5418V11.593C46.1415 11.8428 46.783 11.9742 47.4318 11.9803C49.1786 11.9836 50.5481 10.8775 50.5481 8.83927Z" fill="#F6F6F6"/>
<path d="M56.4815 9.76141C56.2523 10.0235 55.9588 10.22 55.6304 10.3312C55.302 10.4425 54.9504 10.4644 54.611 10.3949C54.3648 10.3364 54.1446 10.1976 53.9846 10C53.8246 9.80237 53.7338 9.55697 53.7262 9.30191C53.7143 9.11589 53.7418 8.92945 53.8068 8.75498C53.8719 8.58052 53.973 8.42203 54.1035 8.29007C54.234 8.1581 54.3908 8.05569 54.5636 7.98963C54.7363 7.92358 54.9211 7.8954 55.1054 7.90697H56.4815V9.7647V9.76141ZM67.3366 11.8423V2.77689H61.195V8.38945C61.195 9.53166 60.4891 10.4835 59.5035 10.5098C59.0448 10.5098 58.3454 10.2144 58.3454 9.5251V5.69805C58.3454 3.82392 57.3695 2.63248 55.2681 2.63248C54.1049 2.61032 52.9802 3.0527 52.1387 3.8633L53.1146 5.081C53.649 4.58054 54.3387 4.28244 55.0664 4.23747C55.6845 4.23747 56.4652 4.51318 56.4652 5.3567V6.32167H54.9395C52.7568 6.32167 51.8427 7.71989 51.8427 9.19031C51.8427 10.6049 52.6104 11.9835 54.8127 11.9835C55.5849 11.9515 56.3207 11.6432 56.8881 11.1137C57.2376 11.4491 57.654 11.7054 58.1095 11.8656C58.565 12.0257 59.0491 12.0861 59.5295 12.0425C61.6472 11.9769 63.0069 10.8248 62.9516 8.33038V4.32609H65.5117V11.8423H67.3366Z" fill="#F6F6F6"/>
<path d="M91.9711 11.8485L88.6368 7.0631L91.7531 2.79624H89.6322L87.2998 6.3443H86.1548V2.77655H84.3266V11.8485H86.119L86.1353 7.8935H87.2705L89.8436 11.8485H91.9711Z" fill="#F6F6F6"/>
<path d="M83.1402 10.8312L82.3758 9.46582C81.3186 10.2174 80.6842 10.4505 80.154 10.4505C79.4091 10.4505 78.6641 10.0632 78.6641 9.27546V5.74053C78.6641 4.93311 79.4058 4.36201 80.2613 4.36201C80.9682 4.41892 81.6263 4.74797 82.0993 5.28102L83.0752 4.04363C82.7159 3.58739 82.255 3.22323 81.7298 2.98083C81.2046 2.73842 80.6302 2.62462 80.0531 2.6487C78.2152 2.6487 76.8002 3.78762 76.8002 5.75038V9.15073C76.8002 11.0774 78.277 11.9833 80.0954 11.9833C81.2189 11.9765 82.3031 11.5657 83.1532 10.8247" fill="#F6F6F6"/>
<path d="M100.354 11.8421V2.79639H98.5292L94.8338 8.96364V2.79639H93.0284V11.8421H94.8338H94.8533L98.5292 5.70441V11.8421H100.354Z" fill="#F6F6F6"/>
<path d="M43.1838 0H41.1019L39.4917 5.39262C39.4624 5.49109 39.4234 5.5994 39.4006 5.72084C39.3778 5.84228 39.355 5.91777 39.3453 5.99326C39.3355 6.06875 39.3258 6.10814 39.3258 6.11142C39.3258 6.1147 39.3258 6.07204 39.3063 5.99983C39.2867 5.92762 39.2737 5.839 39.251 5.73397C39.2303 5.62846 39.1998 5.52516 39.1599 5.42545L36.7819 0H34.661L38.467 8.43849L38.2263 9.04897C37.9205 9.7251 37.1203 10.4702 35.6824 10.5325L35.9102 11.9964C38.0181 12.0423 39.4071 11.0971 39.9471 9.51504L43.1838 0Z" fill="#F6F6F6"/>
<path d="M124.785 18.1342H122.96V27.18H124.785V18.1342Z" fill="#F6F6F6"/>
<path d="M117.315 25.6504H118.88C119.703 25.6504 120.028 24.7413 120.028 24.1341C120.028 23.5269 119.683 22.7621 118.85 22.7621H117.312V25.6504H117.315ZM115.454 27.2193V18.1342H117.315V21.2129H118.616C120.799 21.2129 121.957 22.5586 121.937 24.1045C121.918 25.6504 120.838 27.2193 118.639 27.2193H115.435H115.454Z" fill="#F6F6F6"/>
<path d="M43.3239 24.3768C43.3226 24.5518 43.2857 24.7247 43.2155 24.8847C43.1454 25.0448 43.0434 25.1886 42.916 25.3074C42.7886 25.4261 42.6383 25.5172 42.4746 25.5751C42.3109 25.6329 42.1372 25.6563 41.9642 25.6437C41.7563 25.6652 41.5465 25.6306 41.3562 25.5436C41.1659 25.4565 41.0019 25.32 40.8809 25.1481V20.4414V20.2478C41.0257 20.0712 41.2077 19.9295 41.4137 19.833C41.6197 19.7364 41.8444 19.6875 42.0715 19.6898C42.2406 19.6856 42.4086 19.7173 42.5648 19.7827C42.721 19.8481 42.8619 19.9458 42.9783 20.0695C43.0948 20.1932 43.1843 20.3401 43.241 20.5009C43.2977 20.6616 43.3204 20.8325 43.3077 21.0027V24.3768H43.3239ZM39.0365 20.1723V20.2839V25.1481C38.9156 25.32 38.7516 25.4565 38.5612 25.5436C38.3709 25.6306 38.1611 25.6652 37.9533 25.6437C37.7813 25.6544 37.609 25.6297 37.4468 25.571C37.2846 25.5123 37.136 25.4209 37.01 25.3023C36.884 25.1838 36.7832 25.0406 36.7139 24.8814C36.6445 24.7223 36.608 24.5506 36.6065 24.3768V20.9173C36.5937 20.7469 36.6165 20.5757 36.6734 20.4147C36.7303 20.2538 36.8201 20.1066 36.9369 19.9829C37.0538 19.8591 37.195 19.7615 37.3516 19.6963C37.5082 19.6311 37.6766 19.5998 37.8459 19.6045C38.0738 19.6031 38.2991 19.6535 38.5052 19.7518C38.7113 19.85 38.8928 19.9937 39.0365 20.1723ZM45.2171 24.1831V21.0585C45.2171 19.0892 44.3193 17.9732 42.3903 17.9732C41.8709 17.9735 41.3603 18.1079 40.907 18.3638V16.657H39.0365V18.3638C38.5831 18.1082 38.0725 17.9738 37.5532 17.9732C35.6241 17.9732 34.7263 19.0924 34.7263 21.0585V24.1798C34.7263 26.2181 35.9527 27.3242 37.6995 27.3242C38.1708 27.3106 38.6309 27.1762 39.0365 26.9336V30.0976H40.8972V26.9336C41.3032 27.1749 41.7632 27.3081 42.2342 27.3209C43.981 27.3242 45.2171 26.2181 45.2171 24.1798V24.1831Z" fill="#F6F6F6"/>
<path d="M51.4728 20.6972V21.823H48.6948V20.8383C48.6948 20.0309 49.3844 19.5714 50.1846 19.5714C50.6758 19.5714 51.4858 19.8996 51.4858 20.7103L51.4728 20.6972ZM53.5645 26.139L52.7805 24.7179C52.0908 25.3321 51.2084 25.6808 50.2887 25.7025C49.3974 25.7025 48.7078 25.2069 48.7078 24.2321V23.3722H53.3498V21.1665C53.3498 18.869 51.9087 17.9893 50.1781 17.9893C48.1938 17.9893 46.808 19.0167 46.808 21.2715V24.2879C46.808 26.3064 48.1092 27.3206 50.1228 27.3206C51.6029 27.3239 52.4942 26.8414 53.5514 26.1259L53.5645 26.139Z" fill="#F6F6F6"/>
<path d="M57.1939 25.6534C57.6526 25.148 57.9389 24.183 57.9161 23.1984V19.693H60.4762V25.6534H57.1939ZM62.3011 25.6534V18.1372H56.1432V23.136C56.1432 24.2749 55.4926 25.6272 54.494 25.6534H54.3248V29.3984H56.0977V27.2059H61.5009V29.4017H63.3225V25.6534H62.3011Z" fill="#F6F6F6"/>
<path d="M113.568 27.18V18.1342H111.74V21.6691H108.047V18.1342H106.239V27.18H108.047V23.2183H111.74V27.18H113.568Z" fill="#F6F6F6"/>
<path d="M77.8077 24.3929C77.8077 25.1806 77.027 25.6598 76.3179 25.6598C75.7414 25.6452 75.1795 25.474 74.6914 25.1642V20.2935C75.1834 19.8839 75.7974 19.6528 76.435 19.637C76.6114 19.63 76.7875 19.6586 76.9529 19.7211C77.1182 19.7836 77.2696 19.8788 77.398 20.001C77.5265 20.1233 77.6294 20.2702 77.7009 20.4331C77.7724 20.5961 77.8109 20.7717 77.8142 20.9499V24.3929H77.8077ZM79.6879 24.196V21.0746C79.6879 19.1053 78.647 17.9893 76.718 17.9893C75.9893 17.9893 74.7369 18.2847 74.2262 18.7049C74.0848 18.3882 73.8322 18.1357 73.5171 17.9959L72.3688 19.0659C72.8047 19.3613 72.8209 19.939 72.8209 20.195V30.1138H74.6816V26.953C75.2813 27.2027 75.9229 27.3342 76.5716 27.3403C78.3184 27.3403 79.6977 26.2375 79.6977 24.1993L79.6879 24.196Z" fill="#F6F6F6"/>
<path d="M85.6217 25.122C84.9353 26.0181 82.8925 26.133 82.8664 24.6625C82.854 24.4757 82.8812 24.2883 82.9465 24.1129C83.0117 23.9376 83.1133 23.7783 83.2446 23.6459C83.3759 23.5134 83.5337 23.4109 83.7075 23.3451C83.8813 23.2792 84.067 23.2517 84.2522 23.2643H85.6282V25.122H85.6217ZM96.4899 27.2029V18.1342H90.3353V23.7501C90.3353 24.8923 89.6294 25.8441 88.6437 25.8704C88.185 25.8704 87.4857 25.575 87.4857 24.8857V21.0587C87.4857 19.1845 86.5098 17.9931 84.4084 17.9931C83.2452 17.9713 82.1206 18.4136 81.279 19.2239L82.2549 20.4416C82.7892 19.9412 83.479 19.6431 84.2067 19.5981C84.8247 19.5981 85.6054 19.8738 85.6054 20.7173V21.6823H84.0798C81.8971 21.6823 80.983 23.0805 80.983 24.5509C80.983 25.9656 81.7507 27.3441 83.9529 27.3441C84.7252 27.3121 85.4609 27.0038 86.0283 26.4743C86.378 26.8095 86.7944 27.0657 87.2498 27.2259C87.7053 27.386 88.1893 27.4465 88.6697 27.4032C90.7874 27.3342 92.1472 26.1822 92.0919 23.691V19.6933H94.6617V27.2095H96.4834L96.4899 27.2029Z" fill="#F6F6F6"/>
<path d="M100.24 25.6504H101.818C102.641 25.6504 102.966 24.7413 102.966 24.1341C102.966 23.5269 102.621 22.7621 101.788 22.7621H100.25V25.6504H100.24ZM98.3791 27.2193V18.1342H100.24V21.2129H101.541C103.727 21.2129 104.882 22.5586 104.866 24.1045C104.849 25.6504 103.766 27.2193 101.567 27.2193H98.3629H98.3791Z" fill="#F6F6F6"/>
<path d="M42.4131 33.4982H40.3865L38.5518 40.5286C38.5466 40.0922 38.4787 39.6588 38.3501 39.242L36.7887 33.4949L34.7263 33.5146C34.7263 33.5146 37.1303 41.1785 37.693 42.5209C37.4165 43.7058 36.7757 44.4902 35.4159 44.6248L35.5916 46.0001C37.654 46.0001 38.8251 44.8775 39.2512 43.4957L42.4131 33.4982Z" fill="#F6F6F6"/>
<path d="M50.9059 42.544V33.4982H49.081V37.0299H45.3856V33.4982H43.5802V42.544H45.3856V38.5824H49.081V42.544H50.9059Z" fill="#F6F6F6"/>
<path d="M60.1182 42.544V33.4982H58.2932L54.5979 39.6655V33.4982H52.7925V42.544H54.5979H54.6174L58.2932 36.4063V42.544H60.1182Z" fill="#F6F6F6"/>
<path d="M102.791 33.4982V35.0474H105.055V42.5637H105.172H106.877H106.994V35.0474H109.261V33.4982H102.791Z" fill="#F6F6F6"/>
<path d="M101.437 42.544V33.4982H99.6125L95.9171 39.6655V33.4982H94.1118V42.544H95.9171H95.9367L99.6125 36.4063V42.544H101.437Z" fill="#F6F6F6"/>
<path d="M83.0776 39.7378C83.0776 40.5256 82.2969 41.0048 81.5878 41.0048C81.0113 40.9901 80.4494 40.8189 79.9613 40.5091V35.6351C80.4532 35.2253 81.0672 34.9941 81.7049 34.9786C81.8813 34.9716 82.0574 35.0002 82.2228 35.0627C82.3881 35.1252 82.5395 35.2204 82.6679 35.3427C82.7964 35.4649 82.8994 35.6118 82.9708 35.7748C83.0423 35.9377 83.0808 36.1134 83.0841 36.2915V39.751L83.0776 39.7378ZM84.9579 39.5409V36.4326C84.9579 34.4633 83.9169 33.3474 81.9879 33.3474C81.2592 33.3474 80.0068 33.6428 79.4961 34.0629C79.3556 33.7448 79.1028 33.4909 78.787 33.3507L77.6387 34.4207C78.0746 34.7161 78.0876 35.2937 78.0876 35.5497V45.4587H79.9515V42.2979C80.5512 42.5477 81.1928 42.6791 81.8415 42.6852C83.6014 42.6688 84.9579 41.5791 84.9579 39.5409Z" fill="#F6F6F6"/>
<path d="M92.921 41.5065L92.1566 40.1412C91.0994 40.8928 90.4651 41.1258 89.9381 41.1258C89.1932 41.1258 88.4482 40.7385 88.4482 39.9508V36.4323C88.4482 35.6248 89.1931 35.0537 90.0487 35.0537C90.7554 35.111 91.4134 35.44 91.8866 35.9728L92.8625 34.7354C92.5033 34.2791 92.0423 33.915 91.5171 33.6726C90.992 33.4302 90.4175 33.3164 89.8405 33.3404C88.0026 33.3404 86.5875 34.4794 86.5875 36.4421V39.8392C86.5875 41.7658 88.0644 42.6717 89.886 42.6717C91.0095 42.665 92.0937 42.2542 92.9438 41.5131" fill="#F6F6F6"/>
<path d="M114.872 36.0388V37.1646H112.094V36.1799C112.094 35.3725 112.784 34.913 113.584 34.913C114.075 34.913 114.885 35.2412 114.885 36.0519L114.872 36.0388ZM116.964 41.4807L116.163 40.0431C115.474 40.6573 114.591 41.006 113.672 41.0277C112.78 41.0277 112.091 40.5321 112.091 39.5573V38.7302H116.749V36.5246C116.749 34.227 115.308 33.3474 113.577 33.3474C111.593 33.3474 110.207 34.3747 110.207 36.6296V39.6426C110.207 41.6612 111.508 42.6754 113.522 42.6754C115.002 42.6688 115.893 42.1831 116.951 41.4675L116.964 41.4807Z" fill="#F6F6F6"/>
<path d="M74.4932 36.0388V37.1646H71.7152V36.1799C71.7152 35.3725 72.4048 34.913 73.205 34.913C73.6962 34.913 74.5062 35.2412 74.5062 36.0519L74.4932 36.0388ZM76.5849 41.4807L75.7684 40.0431C75.0787 40.6573 74.1962 41.006 73.2766 41.0277C72.3853 41.0277 71.6956 40.5321 71.6956 39.5573V38.7302H76.3539V36.5246C76.3539 34.227 74.9128 33.3474 73.1855 33.3474C71.2012 33.3474 69.8154 34.3747 69.8154 36.6296V39.6426C69.8154 41.6612 71.1166 42.6754 73.1302 42.6754C74.6071 42.6688 75.4984 42.1831 76.5556 41.4675L76.5849 41.4807Z" fill="#F6F6F6"/>
</svg>
