<svg width="800" height="638" viewBox="0 0 800 638" fill="none" xmlns="http://www.w3.org/2000/svg">
<path d="M350 700C350 700 300 700 300 650C300 600 350 450 550 450C750 450 800 600 800 650C800 700 750 700 750 700H350ZM550 400C589.782 400 627.936 384.196 656.066 356.066C684.197 327.936 700 289.782 700 250C700 210.218 684.197 172.064 656.066 143.934C627.936 115.804 589.782 100 550 100C510.218 100 472.064 115.804 443.934 143.934C415.804 172.064 400 210.218 400 250C400 289.782 415.804 327.936 443.934 356.066C472.064 384.196 510.218 400 550 400Z" fill="#1E4391"/>
<path fill-rule="evenodd" clip-rule="evenodd" d="M260.8 700C253.388 684.391 249.691 667.277 250 650C250 582.25 284 512.5 346.8 464C315.455 454.342 282.797 449.619 250 450C50 450 0 600 0 650C0 700 50 700 50 700H260.8Z" fill="#1E4391"/>
<path d="M225 400C258.152 400 289.946 386.83 313.388 363.388C336.83 339.946 350 308.152 350 275C350 241.848 336.83 210.054 313.388 186.612C289.946 163.17 258.152 150 225 150C191.848 150 160.054 163.17 136.612 186.612C113.17 210.054 100 241.848 100 275C100 308.152 113.17 339.946 136.612 363.388C160.054 386.83 191.848 400 225 400Z" fill="#1E4391"/>
</svg>
