<svg width="53" height="50" viewBox="0 0 53 50" fill="none" xmlns="http://www.w3.org/2000/svg">
<path d="M25.5767 1.21993C25.9183 0.39864 27.0817 0.398636 27.4233 1.21993L33.8038 16.5604C33.9478 16.9066 34.2734 17.1432 34.6472 17.1732L51.2085 18.5009C52.0952 18.572 52.4547 19.6785 51.7792 20.2571L39.1612 31.0658C38.8764 31.3097 38.752 31.6925 38.839 32.0573L42.694 48.2183C42.9004 49.0835 41.9592 49.7674 41.2001 49.3037L27.0213 40.6434C26.7012 40.4479 26.2988 40.4479 25.9787 40.6434L11.7999 49.3037C11.0408 49.7674 10.0996 49.0835 10.306 48.2183L14.161 32.0573C14.248 31.6925 14.1236 31.3097 13.8388 31.0658L1.22085 20.2571C0.545312 19.6785 0.904835 18.572 1.79149 18.5009L18.3528 17.1732C18.7266 17.1432 19.0522 16.9066 19.1962 16.5604L25.5767 1.21993Z" fill="#FFB039"/>
<path d="M25.5767 1.21993C25.9183 0.39864 27.0817 0.398636 27.4233 1.21993L33.8038 16.5604C33.9478 16.9066 34.2734 17.1432 34.6472 17.1732L51.2085 18.5009C52.0952 18.572 52.4547 19.6785 51.7792 20.2571L39.1612 31.0658C38.8764 31.3097 38.752 31.6925 38.839 32.0573L42.694 48.2183C42.9004 49.0835 41.9592 49.7674 41.2001 49.3037L27.0213 40.6434C26.7012 40.4479 26.2988 40.4479 25.9787 40.6434L11.7999 49.3037C11.0408 49.7674 10.0996 49.0835 10.306 48.2183L14.161 32.0573C14.248 31.6925 14.1236 31.3097 13.8388 31.0658L1.22085 20.2571C0.545312 19.6785 0.904835 18.572 1.79149 18.5009L18.3528 17.1732C18.7266 17.1432 19.0522 16.9066 19.1962 16.5604L25.5767 1.21993Z" fill="#D7D7D7"/>
</svg>
