<svg width="100" height="100" viewBox="0 0 100 100" fill="none" xmlns="http://www.w3.org/2000/svg">
<path d="M80.9235 43.0385C75.5389 40.9231 74.7697 38.8077 74.7697 36.6923C74.7697 34.5769 76.3081 32.4615 78.2312 30.9231C81.5004 28.2308 83.2312 24.1923 83.2312 19.7692C83.2312 11.3077 77.6543 3.99999 67.8466 3.99999C58.8081 3.99999 53.4235 10.1538 52.6543 17.6538C52.6543 18.4231 53.0389 19 53.6158 19.3846C60.9235 24 65.3466 32.0769 65.3466 41.8846C65.3466 49.1923 62.462 55.7308 57.2697 60.3461C56.8851 60.7308 56.8851 61.5 57.2697 61.8846C58.6158 62.8461 61.6928 64.1923 63.6158 65.1538C64.1928 65.3461 64.5774 65.5385 65.1543 65.5385H88.4235C92.8466 65.5385 96.3081 61.8846 96.3081 57.8461V56.6923C96.3081 49.9615 89.0004 46.3077 80.9235 43.0385Z" fill="#1E4391"/>
<path d="M55.1538 69.7692C48.6154 67.0769 47.6538 64.7692 47.6538 62.2692C47.6538 59.7692 49.5769 57.2692 51.6923 55.3461C55.5384 52.0769 57.6538 47.4615 57.6538 42.0769C57.6538 32.0769 51.1154 23.4231 39.1923 23.4231C27.4615 23.4231 20.7308 32.0769 20.7308 42.0769C20.7308 47.4615 22.8461 52.0769 26.6923 55.3461C28.8077 57.2692 30.7308 59.7692 30.7308 62.2692C30.7308 64.7692 29.7692 67.2692 23.0385 69.7692C13.4231 73.6154 4 78.0384 4 86.1154V86.6923V88.6154C4 92.8461 7.46154 96.3077 11.8846 96.3077H65.1538C69.5769 96.3077 73.2307 92.8461 73.2307 88.6154V86.6923V85.9231C73.2307 78.0384 64.7692 73.6154 55.1538 69.7692Z" fill="#1E4391"/>
</svg>
