<svg width="100" height="100" viewBox="0 0 100 100" fill="none" xmlns="http://www.w3.org/2000/svg">
<g clip-path="url(#clip0_120_537)">
<path d="M100 39.25C100.002 37.8924 99.6448 36.5585 98.9642 35.3839C98.2836 34.2092 97.304 33.2358 96.1251 32.5625L54.0001 7.5625C52.7861 6.85418 51.4057 6.48094 50.0001 6.48094C48.5946 6.48094 47.2142 6.85418 46.0001 7.5625L3.81264 32.5625C2.64684 33.2542 1.68109 34.2374 1.01032 35.4154C0.339539 36.5934 -0.0131836 37.9257 -0.0131836 39.2813C-0.0131836 40.6368 0.339539 41.9691 1.01032 43.1471C1.68109 44.3251 2.64684 45.3083 3.81264 46L15.8126 53V70.5625C15.8199 71.9351 16.1801 73.2827 16.8587 74.4758C17.5374 75.6689 18.5116 76.6673 19.6876 77.375L46.2501 92.6875C47.4361 93.3441 48.7695 93.6886 50.1251 93.6886C51.4808 93.6886 52.8142 93.3441 54.0001 92.6875L80.5626 77.375C81.7387 76.6673 82.7129 75.6689 83.3915 74.4758C84.0702 73.2827 84.4304 71.9351 84.4376 70.5625V52.8125L92.1876 48.25V65.25H100V39.25ZM76.6876 70.5L50.0001 85.875L23.6251 70.5625V57.625L46.0001 70.9375C47.2183 71.6336 48.5971 71.9997 50.0001 71.9997C51.4032 71.9997 52.7819 71.6336 54.0001 70.9375L76.6251 57.4375L76.6876 70.5ZM50.0001 64.1875L7.81264 39.1875L50.0001 14.125L92.1876 39.125L50.0001 64.1875Z" fill="#1E4391"/>
</g>
<defs>
<clipPath id="clip0_120_537">
<rect width="100" height="100" fill="white"/>
</clipPath>
</defs>
</svg>
